<?xml version="1.0" standalone="no"?>
<!DOCTYPE svg PUBLIC "-//W3C//DTD SVG 20010904//EN"
 "http://www.w3.org/TR/2001/REC-SVG-20010904/DTD/svg10.dtd">
<svg version="1.0" xmlns="http://www.w3.org/2000/svg"
 width="852.000000pt" height="459.000000pt" viewBox="0 0 852.000000 459.000000"
 preserveAspectRatio="xMidYMid meet">
<metadata>
Created by potrace 1.15, written by Peter Selinger 2001-2017
</metadata>
<g transform="translate(0.000000,459.000000) scale(0.100000,-0.100000)"
fill="#000000" stroke="none">
<path d="M7373 4355 l-113 -54 -2 -1258 c-2 -692 -2 -1302 0 -1356 l3 -97 87
-44 c96 -48 131 -59 150 -48 9 6 12 321 14 1460 3 1285 1 1452 -12 1451 -8 0
-66 -25 -127 -54z"/>
<path d="M6943 4146 l-90 -44 -6 -107 c-9 -137 -7 -2000 2 -2119 l6 -89 93
-43 92 -43 0 1245 c0 684 -1 1244 -3 1244 -2 0 -44 -20 -94 -44z"/>
<path d="M3891 4001 c-10 -6 -14 -77 -19 -297 -3 -159 -9 -275 -13 -259 -14
56 -39 189 -59 320 -30 186 -36 207 -63 203 -32 -4 -36 -52 -42 -480 -5 -358
-5 -367 14 -378 14 -7 22 -7 27 2 4 6 9 133 12 282 3 149 7 262 9 251 3 -11
28 -130 58 -265 29 -135 55 -256 57 -270 2 -19 9 -25 28 -25 20 0 25 5 27 25
4 64 4 158 4 465 -1 182 2 349 5 372 5 34 3 43 -13 51 -11 6 -25 7 -32 3z"/>
<path d="M6599 3977 l-66 -32 -6 -80 c-9 -105 -9 -1739 0 -1839 l6 -78 70 -34
c39 -19 72 -34 74 -34 1 0 3 479 3 1065 0 586 -3 1065 -7 1064 -5 0 -38 -15
-74 -32z"/>
<path d="M2408 3972 c-8 -9 -23 -39 -33 -66 l-17 -48 -24 28 c-13 16 -28 42
-35 57 -9 22 -17 27 -38 25 l-26 -3 -7 -325 c-4 -179 -12 -360 -17 -402 -11
-95 -3 -143 24 -143 19 0 21 12 32 230 6 127 12 286 12 355 1 133 9 168 29
125 15 -34 28 -32 67 10 l32 36 5 -376 c5 -388 8 -412 45 -389 14 9 16 51 14
404 -1 217 -4 414 -7 438 -7 50 -33 71 -56 44z"/>
<path d="M1973 3958 c-4 -7 -34 -166 -66 -353 -62 -358 -79 -511 -57 -503 17
5 65 178 85 302 9 55 22 104 28 108 7 4 24 8 39 8 30 0 30 2 53 -130 19 -108
41 -217 56 -272 7 -27 15 -38 29 -38 10 0 22 5 25 10 3 6 -5 67 -19 138 -42
206 -106 565 -106 591 0 13 -5 53 -11 88 -9 50 -15 63 -29 63 -11 0 -22 -6
-27 -12z"/>
<path d="M2675 3948 c-3 -13 -14 -79 -25 -148 -40 -266 -62 -389 -87 -505 -33
-154 -35 -189 -8 -193 17 -2 23 5 32 45 6 26 21 84 32 128 11 44 26 114 32
157 l11 78 35 6 c44 8 47 3 63 -95 18 -113 50 -271 61 -308 10 -33 40 -45 54
-23 3 5 -12 103 -34 217 -80 421 -91 484 -91 510 0 15 -5 55 -11 90 -10 57
-13 63 -35 63 -16 0 -25 -7 -29 -22z"/>
<path d="M3170 3949 c-25 -4 -73 -8 -107 -8 -51 -1 -63 -4 -63 -17 0 -14 15
-15 110 -12 91 2 110 0 110 -12 0 -47 -148 -446 -262 -707 -23 -54 -37 -100
-34 -110 6 -14 22 -15 154 -10 167 8 194 13 190 36 -3 14 -20 16 -136 12 -107
-3 -132 -1 -132 10 0 8 30 82 66 164 76 174 224 587 224 625 0 10 -54 41 -67
39 -4 -1 -28 -5 -53 -10z"/>
<path d="M3396 3939 c-49 -38 -61 -108 -60 -344 2 -364 27 -515 91 -531 31 -8
97 11 134 39 59 43 64 79 64 422 0 339 0 340 -63 408 -22 23 -33 27 -83 27
-42 0 -63 -5 -83 -21z m124 -31 c41 -44 49 -107 52 -388 4 -318 -2 -347 -67
-385 -23 -14 -46 -25 -52 -25 -16 0 -35 52 -39 110 -2 30 -9 114 -14 185 -20
269 -9 463 30 511 19 21 66 17 90 -8z"/>
<path d="M4743 3949 c-45 -13 -88 -83 -102 -165 -29 -165 3 -529 55 -641 17
-35 58 -63 94 -63 22 0 110 46 122 64 17 25 -14 29 -57 8 -58 -28 -69 -28 -94
4 -28 35 -38 73 -62 239 -16 109 -20 170 -16 275 5 144 17 200 48 231 21 21
69 25 99 9 20 -11 50 -4 50 12 0 11 -63 38 -87 37 -10 0 -32 -5 -50 -10z"/>
<path d="M5130 3949 c-31 -13 -70 -48 -70 -65 0 -28 33 -23 71 11 43 38 49 41
67 23 30 -30 4 -172 -62 -328 -20 -47 -69 -173 -110 -280 -57 -150 -72 -198
-63 -207 8 -8 64 -14 160 -17 155 -5 170 0 130 40 -15 14 -31 16 -108 11 -51
-3 -98 -2 -105 3 -14 8 23 114 130 370 100 241 122 332 96 395 -21 50 -76 68
-136 44z"/>
<path d="M4470 3940 c-36 -3 -78 -13 -95 -21 l-30 -14 0 -380 c0 -404 1 -409
49 -434 34 -19 171 -3 171 19 0 12 -13 14 -72 12 l-72 -4 -21 34 c-21 32 -21
41 -15 228 3 107 7 231 8 275 2 62 5 80 17 82 8 1 45 5 83 8 51 5 67 10 67 22
0 14 -12 15 -85 9 l-85 -6 0 59 0 59 50 11 c28 6 65 11 83 11 18 0 38 4 46 9
17 11 5 31 -17 30 -9 -1 -46 -5 -82 -9z"/>
<path d="M6307 3834 l-47 -24 0 -865 0 -865 59 -30 c32 -16 61 -26 64 -23 4 3
6 417 7 919 0 1034 9 936 -83 888z"/>
<path d="M3137 2525 c-41 -14 -66 -40 -67 -67 0 -26 41 -27 74 0 31 25 44 25
59 0 17 -25 1 -48 -33 -48 -38 0 -86 -24 -100 -49 -16 -31 -12 -87 8 -112 15
-17 28 -22 61 -21 23 1 52 9 65 17 21 14 24 14 36 0 17 -20 33 -19 55 5 15 17
16 24 7 46 -7 13 -12 60 -12 102 0 91 -13 116 -68 132 -44 12 -38 12 -85 -5z"/>
<path d="M3845 2525 c-40 -14 -75 -47 -75 -70 0 -20 59 -25 73 -5 7 9 18 20
24 24 18 10 53 -12 53 -34 0 -19 -10 -24 -72 -34 -44 -8 -88 -55 -88 -95 0
-16 9 -40 21 -55 16 -21 29 -26 63 -26 23 0 52 7 64 16 21 15 25 15 42 -1 18
-16 20 -16 44 2 16 11 23 23 19 33 -4 8 -10 56 -13 105 -7 105 -12 120 -48
133 -51 20 -67 21 -107 7z"/>
<path d="M3378 2522 l-28 -3 0 -145 0 -145 38 3 37 3 2 90 c4 115 8 135 33
135 31 0 40 -32 40 -134 l0 -96 35 0 35 0 0 98 c0 105 11 137 46 130 17 -3 19
-14 22 -116 l3 -113 37 3 37 3 0 128 c0 123 -1 130 -24 148 -30 24 -72 24
-103 -1 -25 -19 -26 -19 -43 0 -22 25 -72 26 -97 3 -16 -14 -20 -14 -31 -2 -7
8 -24 13 -39 11z"/>
<path d="M4067 2524 c-4 -4 -7 -18 -7 -31 0 -21 5 -23 43 -23 24 0 46 -3 50
-6 3 -3 -19 -41 -49 -84 -38 -55 -54 -87 -54 -110 0 -31 1 -31 33 -23 35 9
105 10 152 3 23 -4 30 -1 33 13 5 25 -26 57 -54 57 -56 0 -56 8 -3 85 33 48
49 82 47 97 -3 22 -7 23 -93 26 -50 1 -94 0 -98 -4z"/>
<path d="M4335 2497 c-78 -78 -50 -240 46 -268 37 -11 45 -11 77 7 51 27 77
76 76 144 0 95 -48 150 -130 150 -27 0 -44 -8 -69 -33z"/>
<path d="M4592 2522 c-13 -9 -25 -203 -15 -259 5 -30 9 -33 39 -33 l34 0 0 98
c0 105 11 137 46 130 17 -3 20 -15 24 -113 l5 -110 35 0 35 0 0 128 c0 123 -1
130 -24 148 -28 23 -69 25 -98 4 -12 -8 -23 -11 -25 -6 -5 13 -41 21 -56 13z"/>
<path d="M3460 2068 c0 -90 3 -119 11 -111 8 8 18 8 34 1 80 -36 138 94 71
160 -23 24 -29 25 -56 15 -30 -11 -30 -11 -30 23 0 24 -5 34 -15 34 -13 0 -15
-20 -15 -122z"/>
<path d="M3055 2130 c-3 -4 -3 -14 -1 -22 3 -7 14 -46 26 -85 24 -85 43 -94
61 -30 18 63 25 64 40 8 9 -36 18 -51 29 -51 22 0 68 166 52 182 -12 12 -28
-19 -39 -74 -7 -34 -19 -28 -28 15 -4 17 -12 40 -17 50 -14 27 -35 5 -43 -44
-9 -51 -22 -50 -36 5 -10 42 -32 65 -44 46z"/>
<path d="M3320 2123 c-35 -24 -40 -33 -40 -79 0 -56 30 -94 75 -94 42 0 86 33
68 51 -10 10 -16 9 -31 -4 -23 -21 -46 -22 -62 -2 -23 28 -4 45 50 45 47 0 50
2 50 25 0 30 -41 75 -67 75 -10 0 -30 -8 -43 -17z"/>
<path d="M3852 2115 c-27 -22 -32 -34 -32 -70 0 -57 30 -95 75 -95 42 0 86 33
68 51 -10 10 -16 9 -31 -4 -32 -29 -72 -15 -72 25 0 15 9 18 55 18 51 0 55 2
55 24 0 31 -28 63 -61 71 -19 5 -34 0 -57 -20z"/>
<path d="M4533 2130 c-30 -12 -43 -41 -43 -93 0 -33 6 -49 23 -65 31 -29 80
-29 107 0 26 29 9 50 -19 24 -24 -21 -65 -15 -75 11 -9 23 11 33 68 33 l49 0
-7 32 c-4 18 -12 38 -19 45 -17 17 -59 24 -84 13z"/>
</g>
</svg>
